<svg width="36" height="37" viewBox="0 0 36 37" fill="none" xmlns="http://www.w3.org/2000/svg">
<g clip-path="url(#clip0_8_199)">
<path d="M23.9995 33.2343V27.4293C24.0558 26.714 23.9591 25.995 23.716 25.32C23.4729 24.645 23.0889 24.0294 22.5895 23.5143C27.2995 22.9893 32.2495 21.2043 32.2495 13.0143C32.2491 10.92 31.4436 8.90608 29.9995 7.38928C30.6833 5.55704 30.6349 3.53181 29.8645 1.73428C29.8645 1.73428 28.0945 1.20928 23.9995 3.95428C20.5615 3.02251 16.9375 3.02251 13.4995 3.95428C9.40451 1.20928 7.63451 1.73428 7.63451 1.73428C6.86408 3.53181 6.81573 5.55704 7.49951 7.38928C6.0447 8.91733 5.2383 10.9495 5.24951 13.0593C5.24951 21.1893 10.1995 22.9743 14.9095 23.5593C14.416 24.0692 14.0354 24.6774 13.7925 25.3442C13.5495 26.0109 13.4497 26.7214 13.4995 27.4293V33.2343M13.4995 28.7343C5.99951 30.9843 5.99951 24.9843 2.99951 24.2343L13.4995 28.7343Z" stroke="url(#paint0_linear_8_199)" stroke-width="3.00312" stroke-linecap="round" stroke-linejoin="round"/>
</g>
<defs>
<linearGradient id="paint0_linear_8_199" x1="32.2495" y1="1.69409" x2="0.775365" y2="30.8318" gradientUnits="userSpaceOnUse">
<stop stop-color="#232F34"/>
<stop offset="1" stop-color="#4A6572"/>
</linearGradient>
<clipPath id="clip0_8_199">
<rect width="36" height="36" fill="white" transform="translate(0 0.234375)"/>
</clipPath>
</defs>
</svg>
